<?xml version="1.0" encoding="UTF-8" standalone="no"?>
<!-- Created with Inkscape (http://www.inkscape.org/) -->

<svg
   xmlns:dc="http://purl.org/dc/elements/1.1/"
   xmlns:cc="http://creativecommons.org/ns#"
   xmlns:rdf="http://www.w3.org/1999/02/22-rdf-syntax-ns#"
   xmlns:svg="http://www.w3.org/2000/svg"
   xmlns="http://www.w3.org/2000/svg"
   xmlns:sodipodi="http://sodipodi.sourceforge.net/DTD/sodipodi-0.dtd"
   xmlns:inkscape="http://www.inkscape.org/namespaces/inkscape"
   width="210mm"
   height="297mm"
   viewBox="0 0 210 297"
   version="1.1"
   id="svg5772"
   inkscape:version="0.92.3 (2405546, 2018-03-11)"
   sodipodi:docname="Action.svg">
  <defs
     id="defs5766" />
  <sodipodi:namedview
     id="base"
     pagecolor="#ffffff"
     bordercolor="#666666"
     borderopacity="1.0"
     inkscape:pageopacity="0.0"
     inkscape:pageshadow="2"
     inkscape:zoom="0.35"
     inkscape:cx="-64.285714"
     inkscape:cy="560"
     inkscape:document-units="mm"
     inkscape:current-layer="layer1"
     showgrid="false"
     inkscape:window-width="1920"
     inkscape:window-height="1017"
     inkscape:window-x="-8"
     inkscape:window-y="-8"
     inkscape:window-maximized="1" />
  <metadata
     id="metadata5769">
    <rdf:RDF>
      <cc:Work
         rdf:about="">
        <dc:format>image/svg+xml</dc:format>
        <dc:type
           rdf:resource="http://purl.org/dc/dcmitype/StillImage" />
        <dc:title></dc:title>
      </cc:Work>
    </rdf:RDF>
  </metadata>
  <g
     inkscape:label="Layer 1"
     inkscape:groupmode="layer"
     id="layer1">
    <path
       style="fill:#2d7ac7;fill-opacity:1;stroke:none;stroke-width:0.24916969;stroke-dasharray:none;stroke-dashoffset:1"
       inkscape:connector-curvature="0"
       d="m 19.956807,0.13190665 c -0.34884,-0.34883132 -2.591368,0.0498182 -4.460136,0.54817964 0.672754,0.39866841 1.370426,0.94683861 2.043189,1.61960151 0.697672,0.6976721 1.245851,1.3953441 1.64452,2.0930256 0.498342,-1.9186052 1.146177,-3.91196602 0.772427,-4.26080675 z"
       id="path6576" />
    <path
       style="fill:#2d7ac7;fill-opacity:1;stroke:none;stroke-width:0.24916969;stroke-dasharray:none;stroke-dashoffset:1"
       inkscape:connector-curvature="0"
       d="M 6.0780559,7.2332481 5.2308726,6.9093259 C 4.8820413,6.7847426 4.508282,6.8595077 4.2341969,7.1086648 L 0.27240324,11.070459 c -0.64784439,0.647844 -0.0498182,1.769103 0.84717386,1.569773 L 4.4335358,11.892723 C 4.707621,10.646872 5.1561264,8.977433 6.0780559,7.2332481 Z"
       id="path6578" />
    <path
       style="fill:#2d7ac7;fill-opacity:1;stroke:none;stroke-width:0.24916969;stroke-dasharray:none;stroke-dashoffset:1"
       inkscape:connector-curvature="0"
       d="m 12.681045,13.736573 c -1.669429,0.872092 -3.2641212,1.345516 -4.5598006,1.594692 l -0.7724276,3.538207 c -0.1993295,0.897011 0.8970109,1.519937 1.5697738,0.847174 l 3.9617934,-3.961794 c 0.249167,-0.249176 0.348841,-0.647844 0.199339,-0.996685 z"
       id="path6580" />
    <path
       style="fill:#2d7ac7;fill-opacity:1;stroke:none;stroke-width:0.24916969;stroke-dasharray:none;stroke-dashoffset:1"
       inkscape:connector-curvature="0"
       d="M 14.151155,1.1285918 C 12.681045,1.7265991 11.011616,2.7481933 9.3920052,4.3677949 6.4268873,7.3329129 5.5547948,10.920957 5.3056283,12.964145 l 1.5448553,1.544856 C 8.8936721,14.259834 12.506634,13.412651 15.471752,10.447533 17.091354,8.8279311 18.112948,7.183411 18.710956,5.7133113 18.387033,4.8910466 17.739198,3.9192894 16.817269,2.9724414 15.920258,2.1003489 14.97341,1.4525045 14.151155,1.1285918 Z m 1.27076,5.3820657 c -0.573088,0.5730888 -1.519936,0.5730888 -2.117944,0 -0.573088,-0.5730982 -0.573088,-1.5199368 0,-2.1179441 0.573089,-0.5730888 1.519937,-0.5730888 2.117944,0 0.573089,0.5980073 0.573089,1.5448459 0,2.1179441 z"
       id="path6582" />
    <path
       style="fill:#ffffff;fill-opacity:1;stroke:none;stroke-width:0.24916969;stroke-dasharray:none;stroke-dashoffset:1"
       inkscape:connector-curvature="0"
       d="M 5.2807097,14.533919 C 4.8820413,14.135251 4.931869,13.462488 4.1096136,14.284753 3.2873489,15.107008 2.0664252,16.975785 2.440175,17.374454 2.8388434,17.773122 4.707621,16.52728 5.5298763,15.705015 6.352141,14.857841 5.6793781,14.907669 5.2807097,14.533919 Z"
       id="path6584" />
  </g>
</svg>
