<?xml version="1.0" encoding="UTF-8" standalone="no"?>
<!-- Created with Inkscape (http://www.inkscape.org/) -->

<svg
   xmlns:dc="http://purl.org/dc/elements/1.1/"
   xmlns:cc="http://creativecommons.org/ns#"
   xmlns:rdf="http://www.w3.org/1999/02/22-rdf-syntax-ns#"
   xmlns:svg="http://www.w3.org/2000/svg"
   xmlns="http://www.w3.org/2000/svg"
   xmlns:sodipodi="http://sodipodi.sourceforge.net/DTD/sodipodi-0.dtd"
   xmlns:inkscape="http://www.inkscape.org/namespaces/inkscape"
   width="210mm"
   height="297mm"
   viewBox="0 0 210 297"
   version="1.1"
   id="svg5762"
   inkscape:version="0.92.3 (2405546, 2018-03-11)"
   sodipodi:docname="Author.svg">
  <defs
     id="defs5756" />
  <sodipodi:namedview
     id="base"
     pagecolor="#ffffff"
     bordercolor="#666666"
     borderopacity="1.0"
     inkscape:pageopacity="0.0"
     inkscape:pageshadow="2"
     inkscape:zoom="5.6"
     inkscape:cx="25.420892"
     inkscape:cy="1080.5194"
     inkscape:document-units="mm"
     inkscape:current-layer="layer1"
     showgrid="false"
     inkscape:window-width="1920"
     inkscape:window-height="1017"
     inkscape:window-x="-8"
     inkscape:window-y="-8"
     inkscape:window-maximized="1" />
  <metadata
     id="metadata5759">
    <rdf:RDF>
      <cc:Work
         rdf:about="">
        <dc:format>image/svg+xml</dc:format>
        <dc:type
           rdf:resource="http://purl.org/dc/dcmitype/StillImage" />
        <dc:title></dc:title>
      </cc:Work>
    </rdf:RDF>
  </metadata>
  <g
     inkscape:label="Layer 1"
     inkscape:groupmode="layer"
     id="layer1">
    <path
       style="fill:#2d7ac7;fill-opacity:1;stroke:none;stroke-width:0.26150542;stroke-dasharray:none;stroke-dashoffset:1"
       d="M 12.560446,4.1840892 A 4.1840868,4.1840868 0 0 1 8.376359,8.368176 4.1840868,4.1840868 0 0 1 4.1922722,4.1840892 4.1840868,4.1840868 0 0 1 8.376359,2.3841858e-6 4.1840868,4.1840868 0 0 1 12.560446,4.1840892 Z"
       id="circle5156" />
    <path
       id="path5158"
       d="m 15.960018,11.482769 c -0.07136,-0.544748 -0.341392,-1.043933 -0.758365,-1.401672 -1.11723,-0.7650356 -2.36788,-1.3140636 -3.687231,-1.6187178 -0.149056,-0.034 -0.305959,-0.062761 -0.462862,-0.091523 -1.6217028,1.0391197 -3.6999323,1.0391197 -5.321635,0 L 5.2592153,8.4571409 C 3.9386384,8.7801985 2.684035,9.3296218 1.5510699,10.081087 1.0855886,10.379208 0.89207621,10.933593 0.79270579,11.48276 l -0.78451631,4.495271 c -0.04694743,0.379394 0.11022269,0.755339 0.41317695,0.988495 L 2.2126729,18.148534 V 12.48694 c -1.98e-5,-0.655702 0.5315141,-1.187236 1.1872066,-1.187266 0.00297,0 0.00494,0 0.00791,3e-5 H 13.34501 c 0.655693,0 1.187226,0.531534 1.187226,1.187236 v 5.517767 l 1.888078,-1.184627 c 0.223529,-0.150934 0.347668,-0.41121 0.324263,-0.679908 z"
       inkscape:connector-curvature="0"
       style="fill:#2d7ac7;fill-opacity:1;stroke:none;stroke-width:0.26150542;stroke-dasharray:none;stroke-dashoffset:1" />
    <path
       id="path5160"
       d="M 14.017026,19.003659 V 12.48695 c 3e-5,-0.366842 -0.29733,-0.664251 -0.664162,-0.664281 -0.003,0 -0.0049,3e-5 -0.0079,4.9e-5 H 3.4077568 c -0.3668421,0 -0.6642222,0.29739 -0.6642222,0.664232 v 6.516709 H 0.74301071 v 0.332111 c 9.8837e-4,0.36624 0.29799269,0.662789 0.66423209,0.664232 H 15.345481 c 0.366239,-9.88e-4 0.662779,-0.297992 0.664222,-0.664232 v -0.332111 z m -6.9952657,-2.183569 -0.36872,0.36872 -1.4670431,-1.467043 1.4670431,-1.467043 0.36872,0.36872 -1.0957035,1.098323 z m 0.9754195,0.551775 -0.4837858,-0.20136 1.2264547,-2.960238 0.4811766,0.20136 z M 10.089217,17.18881 9.7204964,16.82009 10.8162,15.721767 9.7204964,14.623444 l 0.3687206,-0.36872 1.467052,1.467043 z"
       inkscape:connector-curvature="0"
       style="fill:#2d7ac7;fill-opacity:1;stroke:none;stroke-width:0.26150542;stroke-dasharray:none;stroke-dashoffset:1" />
    <path
       inkscape:connector-curvature="0"
       style="opacity:1;fill:#ffffff;fill-opacity:1;stroke:none;stroke-width:4.44765139;stroke-linecap:round;stroke-linejoin:round;stroke-miterlimit:4;stroke-dasharray:none;stroke-opacity:1;paint-order:normal"
       d="m 8.7397506,14.210119 -1.2263166,2.960317 0.4836831,0.201232 1.2237617,-2.959824 z m -2.0869362,0.04438 -1.4668807,1.46738 1.4668807,1.466894 0.3687645,-0.368779 -1.0955666,-1.098115 1.0955666,-1.09863 z m 3.4363456,0 -0.368764,0.36875 1.095564,1.09863 -1.095564,1.098115 0.368764,0.368779 1.466881,-1.466894 z"
       id="rect5172" />
  </g>
</svg>
