<?xml version="1.0" encoding="UTF-8" standalone="no"?>
<!-- Created with Inkscape (http://www.inkscape.org/) -->

<svg
   xmlns:dc="http://purl.org/dc/elements/1.1/"
   xmlns:cc="http://creativecommons.org/ns#"
   xmlns:rdf="http://www.w3.org/1999/02/22-rdf-syntax-ns#"
   xmlns:svg="http://www.w3.org/2000/svg"
   xmlns="http://www.w3.org/2000/svg"
   xmlns:sodipodi="http://sodipodi.sourceforge.net/DTD/sodipodi-0.dtd"
   xmlns:inkscape="http://www.inkscape.org/namespaces/inkscape"
   width="210mm"
   height="297mm"
   viewBox="0 0 210 297"
   version="1.1"
   id="svg5159"
   inkscape:version="0.92.3 (2405546, 2018-03-11)"
   sodipodi:docname="CloudDownload.svg">
  <defs
     id="defs5153" />
  <sodipodi:namedview
     id="base"
     pagecolor="#ffffff"
     bordercolor="#666666"
     borderopacity="1.0"
     inkscape:pageopacity="0.0"
     inkscape:pageshadow="2"
     inkscape:zoom="2.8"
     inkscape:cx="-105.98281"
     inkscape:cy="1008.6375"
     inkscape:document-units="mm"
     inkscape:current-layer="layer1"
     showgrid="false"
     inkscape:window-width="1920"
     inkscape:window-height="1017"
     inkscape:window-x="-8"
     inkscape:window-y="-8"
     inkscape:window-maximized="1" />
  <metadata
     id="metadata5156">
    <rdf:RDF>
      <cc:Work
         rdf:about="">
        <dc:format>image/svg+xml</dc:format>
        <dc:type
           rdf:resource="http://purl.org/dc/dcmitype/StillImage" />
        <dc:title></dc:title>
      </cc:Work>
    </rdf:RDF>
  </metadata>
  <g
     inkscape:label="Layer 1"
     inkscape:groupmode="layer"
     id="layer1">
    <path
       style="fill:#2d7ac7;fill-opacity:1;stroke:none;stroke-width:0.21733792;stroke-dasharray:none;stroke-dashoffset:1"
       inkscape:connector-curvature="0"
       d="M 11.626064,4.7776777 H 8.1486598 V 9.9937876 H 5.4319286 L 9.8873577,15.209899 14.342787,9.9937876 h -2.716723 z"
       id="path5323" />
    <path
       style="fill:#ffffff;fill-opacity:1;stroke:none;stroke-width:0.21733792;stroke-dasharray:none;stroke-dashoffset:1"
       inkscape:connector-curvature="0"
       d="M 17.081244,5.4079563 C 16.907372,4.342999 16.320564,3.3867175 15.451215,2.7564389 14.560122,2.1261521 13.429967,1.8870817 12.343275,2.104425 11.278326,0.4743864 9.3005494,-0.3297653 7.4097053,0.1266485 5.5623314,0.6047892 4.1713714,2.1478872 3.8888307,4.0387314 2.6717436,4.0821853 1.5198458,4.66901 0.78089946,5.6470267 -0.08844957,6.8641218 -0.24058749,8.4506896 0.367956,9.8199156 0.99823468,11.167413 2.3022623,12.058497 3.7801631,12.145438 H 5.3667314 L 4.7799149,11.428219 4.2365768,10.79794 H 3.8453685 C 2.8673437,10.732718 1.9979947,10.145927 1.5633161,9.2548416 1.1503726,8.3420226 1.2590402,7.2988006 1.8458568,6.4729136 2.4326651,5.6687619 3.41069,5.2775535 4.4104417,5.4296914 L 5.1711231,5.5600942 V 4.7124803 c 0,-1.5431061 1.0432222,-2.890596 2.5428581,-3.260069 1.4996275,-0.3694814 3.0427338,0.369473 3.7382098,1.738698 l 0.260806,0.521611 0.543345,-0.1956 c 0.825887,-0.2825407 1.716972,-0.1521379 2.434183,0.3477379 0.695484,0.5216111 1.108428,1.3257628 1.130163,2.1951119 v 0.673749 h 0.891084 c 1.108419,0.043454 1.977776,0.9562905 1.956041,2.0429735 0,1.108427 -0.891084,1.9995124 -1.977776,2.0212474 h -1.130155 l -0.565082,0.630279 -0.608543,0.738946 h 2.30378 c 1.760441,-0.04345 3.194871,-1.43443 3.303539,-3.1948644 0.108668,-1.760441 -1.173625,-3.3035387 -2.912332,-3.5643443 z"
       id="path5325" />
  </g>
</svg>
