<?xml version="1.0" encoding="UTF-8" standalone="no"?>
<!-- Created with Inkscape (http://www.inkscape.org/) -->

<svg
   xmlns:dc="http://purl.org/dc/elements/1.1/"
   xmlns:cc="http://creativecommons.org/ns#"
   xmlns:rdf="http://www.w3.org/1999/02/22-rdf-syntax-ns#"
   xmlns:svg="http://www.w3.org/2000/svg"
   xmlns="http://www.w3.org/2000/svg"
   xmlns:sodipodi="http://sodipodi.sourceforge.net/DTD/sodipodi-0.dtd"
   xmlns:inkscape="http://www.inkscape.org/namespaces/inkscape"
   width="210mm"
   height="297mm"
   viewBox="0 0 210 297"
   version="1.1"
   id="svg6872"
   inkscape:version="0.92.3 (2405546, 2018-03-11)"
   sodipodi:docname="PlugIn.svg">
  <defs
     id="defs6866" />
  <sodipodi:namedview
     id="base"
     pagecolor="#ffffff"
     bordercolor="#666666"
     borderopacity="1.0"
     inkscape:pageopacity="0.0"
     inkscape:pageshadow="2"
     inkscape:zoom="0.35"
     inkscape:cx="-64.285714"
     inkscape:cy="560"
     inkscape:document-units="mm"
     inkscape:current-layer="layer1"
     showgrid="false"
     inkscape:window-width="1920"
     inkscape:window-height="1017"
     inkscape:window-x="-8"
     inkscape:window-y="-8"
     inkscape:window-maximized="1" />
  <metadata
     id="metadata6869">
    <rdf:RDF>
      <cc:Work
         rdf:about="">
        <dc:format>image/svg+xml</dc:format>
        <dc:type
           rdf:resource="http://purl.org/dc/dcmitype/StillImage" />
        <dc:title></dc:title>
      </cc:Work>
    </rdf:RDF>
  </metadata>
  <g
     inkscape:label="Layer 1"
     inkscape:groupmode="layer"
     id="layer1">
    <path
       id="path6493"
       d="m 12.924996,15.175006 c -1.65,0.04998 -2.250001,-2.075008 -1.074992,-3.300001 l 0.174992,-0.175001 c 1.225002,-1.174999 3.400007,-0.625002 3.350004,1.024998 -0.02504,0.950004 1.100004,2.100001 1.774999,1.424996 L 20,11.299997 15.750005,7.050002 c -0.675005,-0.675005 0.474992,-1.8 1.424996,-1.774999 1.65,0.04998 2.199997,-2.125002 1.024998,-3.350004 L 18.024998,1.749997 C 16.800005,0.574999 14.675003,1.174999 14.724997,2.824999 14.750037,3.775003 13.625003,4.925 12.949998,4.249995 L 8.700003,0 5.825,2.850001 C 5.149995,3.524996 6.300002,4.650001 7.249996,4.625 8.899997,4.57502 9.499997,6.699999 8.324998,7.925001 L 8.149996,8.100003 C 6.924994,9.275001 4.749998,8.725004 4.800002,7.075004 4.824942,6.125 3.699998,4.975003 3.024993,5.649999 L 0,8.700003 4.249995,12.949998 c 0.675005,0.675005 -0.475002,1.8 -1.424996,1.775008 -1.65,-0.04998 -2.200007,2.124993 -1.024998,3.349995 l 0.174992,0.175002 C 3.199995,19.425001 5.324997,18.825001 5.274994,17.175001 5.249954,16.225007 6.374997,15.075 7.050002,15.750005 L 11.299997,20 14.350001,16.950005 c 0.674996,-0.675005 -0.45,-1.8 -1.425005,-1.774999 z"
       inkscape:connector-curvature="0"
       style="fill:#2d7ac7;fill-opacity:1;stroke:none;stroke-width:0.25000006;stroke-dasharray:none;stroke-dashoffset:1" />
  </g>
</svg>
